<?xml version="1.0" encoding="UTF-8" standalone="no"?>
<!DOCTYPE svg PUBLIC "-//W3C//DTD SVG 1.1//EN"
 "http://www.w3.org/Graphics/SVG/1.1/DTD/svg11.dtd">
<!-- Generated by graphviz version 2.47.0 (20210316.0004)
 -->
<!-- Title: dependencies Pages: 1 -->
<svg width="504pt" height="211pt"
 viewBox="0.00 0.00 504.00 211.00" xmlns="http://www.w3.org/2000/svg" xmlns:xlink="http://www.w3.org/1999/xlink">
<g id="graph0" class="graph" transform="scale(1 1) rotate(0) translate(4 207)">
<title>dependencies</title>
<polygon fill="white" stroke="transparent" points="-4,4 -4,-207 500,-207 500,4 -4,4"/>
<text text-anchor="start" x="227.01" y="-42.4" font-family="Times-12" font-weight="bold" font-size="14.00">Legend</text>
<polygon fill="#ffffb3" stroke="transparent" points="14,-10 14,-30 34,-30 34,-10 14,-10"/>
<text text-anchor="start" x="37.63" y="-15.4" font-family="Times-12" font-size="14.00"> &#160;Declarations</text>
<polygon fill="#8dd3c7" stroke="transparent" points="127,-10 127,-30 147,-30 147,-10 127,-10"/>
<text text-anchor="start" x="150.73" y="-15.4" font-family="Times-12" font-size="14.00"> &#160;Module</text>
<polygon fill="#80b1d3" stroke="transparent" points="213,-10 213,-30 233,-30 233,-10 213,-10"/>
<text text-anchor="start" x="236.78" y="-15.4" font-family="Times-12" font-size="14.00"> &#160;Bootstrap</text>
<polygon fill="#fdb462" stroke="transparent" points="310,-10 310,-30 330,-30 330,-10 310,-10"/>
<text text-anchor="start" x="333.67" y="-15.4" font-family="Times-12" font-size="14.00"> &#160;Providers</text>
<polygon fill="#fb8072" stroke="transparent" points="406,-10 406,-30 426,-30 426,-10 406,-10"/>
<text text-anchor="start" x="429.73" y="-15.4" font-family="Times-12" font-size="14.00"> &#160;Exports</text>
<g id="clust1" class="cluster">
<title>cluster_UserPanelModule</title>
<polygon fill="none" stroke="black" stroke-dasharray="1,5" points="12,-70 12,-195 484,-195 484,-70 12,-70"/>
</g>
<g id="clust4" class="cluster">
<title>cluster_UserPanelModule_imports</title>
<polygon fill="none" stroke="black" points="182,-78 182,-130 476,-130 476,-78 182,-78"/>
</g>
<g id="clust2" class="cluster">
<title>cluster_UserPanelModule_declarations</title>
<polygon fill="none" stroke="black" points="20,-78 20,-130 174,-130 174,-78 20,-78"/>
</g>
<!-- UserPanelComponent -->
<g id="node1" class="node">
<title>UserPanelComponent</title>
<polygon fill="#ffffb3" stroke="black" points="166.36,-122 27.64,-122 27.64,-86 166.36,-86 166.36,-122"/>
<text text-anchor="middle" x="97" y="-99.8" font-family="Times,serif" font-size="14.00">UserPanelComponent</text>
</g>
<!-- UserPanelModule -->
<g id="node2" class="node">
<title>UserPanelModule</title>
<polygon fill="#8dd3c7" stroke="black" points="329.58,-187 326.58,-191 305.58,-191 302.58,-187 212.42,-187 212.42,-151 329.58,-151 329.58,-187"/>
<text text-anchor="middle" x="271" y="-164.8" font-family="Times,serif" font-size="14.00">UserPanelModule</text>
</g>
<!-- UserPanelComponent&#45;&gt;UserPanelModule -->
<g id="edge1" class="edge">
<title>UserPanelComponent&#45;&gt;UserPanelModule</title>
<path fill="none" stroke="black" d="M97,-122.11C97,-141.34 97,-169 97,-169 97,-169 202.09,-169 202.09,-169"/>
<polygon fill="black" stroke="black" points="202.09,-172.5 212.09,-169 202.09,-165.5 202.09,-172.5"/>
</g>
<!-- SharedModule -->
<g id="node3" class="node">
<title>SharedModule</title>
<polygon fill="#8dd3c7" stroke="black" points="468.42,-122 465.42,-126 444.42,-126 441.42,-122 369.58,-122 369.58,-86 468.42,-86 468.42,-122"/>
<text text-anchor="middle" x="419" y="-99.8" font-family="Times,serif" font-size="14.00">SharedModule</text>
</g>
<!-- SharedModule&#45;&gt;UserPanelModule -->
<g id="edge2" class="edge">
<title>SharedModule&#45;&gt;UserPanelModule</title>
<path fill="none" stroke="black" d="M419,-122.11C419,-141.34 419,-169 419,-169 419,-169 339.92,-169 339.92,-169"/>
<polygon fill="black" stroke="black" points="339.92,-165.5 329.92,-169 339.92,-172.5 339.92,-165.5"/>
</g>
<!-- UserPanelRoutingModule -->
<g id="node4" class="node">
<title>UserPanelRoutingModule</title>
<polygon fill="#8dd3c7" stroke="black" points="352.2,-122 349.2,-126 328.2,-126 325.2,-122 189.8,-122 189.8,-86 352.2,-86 352.2,-122"/>
<text text-anchor="middle" x="271" y="-99.8" font-family="Times,serif" font-size="14.00">UserPanelRoutingModule</text>
</g>
<!-- UserPanelRoutingModule&#45;&gt;UserPanelModule -->
<g id="edge3" class="edge">
<title>UserPanelRoutingModule&#45;&gt;UserPanelModule</title>
<path fill="none" stroke="black" d="M271,-122.11C271,-122.11 271,-140.99 271,-140.99"/>
<polygon fill="black" stroke="black" points="267.5,-140.99 271,-150.99 274.5,-140.99 267.5,-140.99"/>
</g>
</g>
</svg>
