<?xml version="1.0" encoding="UTF-8" standalone="no"?>
<!DOCTYPE svg PUBLIC "-//W3C//DTD SVG 1.1//EN"
 "http://www.w3.org/Graphics/SVG/1.1/DTD/svg11.dtd">
<!-- Generated by graphviz version 2.47.0 (20210316.0004)
 -->
<!-- Title: dependencies Pages: 1 -->
<svg width="1222pt" height="211pt"
 viewBox="0.00 0.00 1222.00 211.00" xmlns="http://www.w3.org/2000/svg" xmlns:xlink="http://www.w3.org/1999/xlink">
<g id="graph0" class="graph" transform="scale(1 1) rotate(0) translate(4 207)">
<title>dependencies</title>
<polygon fill="white" stroke="transparent" points="-4,4 -4,-207 1218,-207 1218,4 -4,4"/>
<text text-anchor="start" x="586.01" y="-42.4" font-family="Times-12" font-weight="bold" font-size="14.00">Legend</text>
<polygon fill="#ffffb3" stroke="transparent" points="373,-10 373,-30 393,-30 393,-10 373,-10"/>
<text text-anchor="start" x="396.63" y="-15.4" font-family="Times-12" font-size="14.00"> &#160;Declarations</text>
<polygon fill="#8dd3c7" stroke="transparent" points="486,-10 486,-30 506,-30 506,-10 486,-10"/>
<text text-anchor="start" x="509.73" y="-15.4" font-family="Times-12" font-size="14.00"> &#160;Module</text>
<polygon fill="#80b1d3" stroke="transparent" points="572,-10 572,-30 592,-30 592,-10 572,-10"/>
<text text-anchor="start" x="595.78" y="-15.4" font-family="Times-12" font-size="14.00"> &#160;Bootstrap</text>
<polygon fill="#fdb462" stroke="transparent" points="669,-10 669,-30 689,-30 689,-10 669,-10"/>
<text text-anchor="start" x="692.67" y="-15.4" font-family="Times-12" font-size="14.00"> &#160;Providers</text>
<polygon fill="#fb8072" stroke="transparent" points="765,-10 765,-30 785,-30 785,-10 765,-10"/>
<text text-anchor="start" x="788.73" y="-15.4" font-family="Times-12" font-size="14.00"> &#160;Exports</text>
<g id="clust1" class="cluster">
<title>cluster_ContactsModule</title>
<polygon fill="none" stroke="black" stroke-dasharray="1,5" points="8,-70 8,-195 1206,-195 1206,-70 8,-70"/>
</g>
<g id="clust8" class="cluster">
<title>cluster_ContactsModule_imports</title>
<polygon fill="none" stroke="black" points="912,-78 912,-130 1198,-130 1198,-78 912,-78"/>
</g>
<g id="clust2" class="cluster">
<title>cluster_ContactsModule_declarations</title>
<polygon fill="none" stroke="black" points="16,-78 16,-130 904,-130 904,-78 16,-78"/>
</g>
<!-- AvatarUploadDialogComponent -->
<g id="node1" class="node">
<title>AvatarUploadDialogComponent</title>
<polygon fill="#ffffb3" stroke="black" points="896.23,-122 697.77,-122 697.77,-86 896.23,-86 896.23,-122"/>
<text text-anchor="middle" x="797" y="-99.8" font-family="Times,serif" font-size="14.00">AvatarUploadDialogComponent</text>
</g>
<!-- ContactsModule -->
<g id="node6" class="node">
<title>ContactsModule</title>
<polygon fill="#8dd3c7" stroke="black" points="652.04,-187 649.04,-191 628.04,-191 625.04,-187 543.96,-187 543.96,-151 652.04,-151 652.04,-187"/>
<text text-anchor="middle" x="598" y="-164.8" font-family="Times,serif" font-size="14.00">ContactsModule</text>
</g>
<!-- AvatarUploadDialogComponent&#45;&gt;ContactsModule -->
<g id="edge1" class="edge">
<title>AvatarUploadDialogComponent&#45;&gt;ContactsModule</title>
<path fill="none" stroke="black" d="M797,-122.03C797,-138.4 797,-160 797,-160 797,-160 662.11,-160 662.11,-160"/>
<polygon fill="black" stroke="black" points="662.11,-156.5 652.11,-160 662.11,-163.5 662.11,-156.5"/>
</g>
<!-- ContactAvatarComponent -->
<g id="node2" class="node">
<title>ContactAvatarComponent</title>
<polygon fill="#ffffb3" stroke="black" points="679.47,-122 516.53,-122 516.53,-86 679.47,-86 679.47,-122"/>
<text text-anchor="middle" x="598" y="-99.8" font-family="Times,serif" font-size="14.00">ContactAvatarComponent</text>
</g>
<!-- ContactAvatarComponent&#45;&gt;ContactsModule -->
<g id="edge2" class="edge">
<title>ContactAvatarComponent&#45;&gt;ContactsModule</title>
<path fill="none" stroke="black" d="M598,-122.11C598,-122.11 598,-140.99 598,-140.99"/>
<polygon fill="black" stroke="black" points="594.5,-140.99 598,-150.99 601.5,-140.99 594.5,-140.99"/>
</g>
<!-- ContactCardComponent -->
<g id="node3" class="node">
<title>ContactCardComponent</title>
<polygon fill="#ffffb3" stroke="black" points="498.09,-122 345.91,-122 345.91,-86 498.09,-86 498.09,-122"/>
<text text-anchor="middle" x="422" y="-99.8" font-family="Times,serif" font-size="14.00">ContactCardComponent</text>
</g>
<!-- ContactCardComponent&#45;&gt;ContactsModule -->
<g id="edge3" class="edge">
<title>ContactCardComponent&#45;&gt;ContactsModule</title>
<path fill="none" stroke="black" d="M422,-122.03C422,-138.4 422,-160 422,-160 422,-160 533.76,-160 533.76,-160"/>
<polygon fill="black" stroke="black" points="533.76,-163.5 543.76,-160 533.76,-156.5 533.76,-163.5"/>
</g>
<!-- ContactFormComponent -->
<g id="node4" class="node">
<title>ContactFormComponent</title>
<polygon fill="#ffffb3" stroke="black" points="327.71,-122 172.29,-122 172.29,-86 327.71,-86 327.71,-122"/>
<text text-anchor="middle" x="250" y="-99.8" font-family="Times,serif" font-size="14.00">ContactFormComponent</text>
</g>
<!-- ContactFormComponent&#45;&gt;ContactsModule -->
<g id="edge4" class="edge">
<title>ContactFormComponent&#45;&gt;ContactsModule</title>
<path fill="none" stroke="black" d="M250,-122.11C250,-141.34 250,-169 250,-169 250,-169 533.62,-169 533.62,-169"/>
<polygon fill="black" stroke="black" points="533.63,-172.5 543.62,-169 533.62,-165.5 533.63,-172.5"/>
</g>
<!-- ContactsComponent -->
<g id="node5" class="node">
<title>ContactsComponent</title>
<polygon fill="#ffffb3" stroke="black" points="154.32,-122 23.68,-122 23.68,-86 154.32,-86 154.32,-122"/>
<text text-anchor="middle" x="89" y="-99.8" font-family="Times,serif" font-size="14.00">ContactsComponent</text>
</g>
<!-- ContactsComponent&#45;&gt;ContactsModule -->
<g id="edge5" class="edge">
<title>ContactsComponent&#45;&gt;ContactsModule</title>
<path fill="none" stroke="black" d="M89,-122.29C89,-144.21 89,-178 89,-178 89,-178 533.53,-178 533.53,-178"/>
<polygon fill="black" stroke="black" points="533.53,-181.5 543.53,-178 533.53,-174.5 533.53,-181.5"/>
</g>
<!-- ContactsRoutingModule -->
<g id="node7" class="node">
<title>ContactsRoutingModule</title>
<polygon fill="#8dd3c7" stroke="black" points="1189.66,-122 1186.66,-126 1165.66,-126 1162.66,-122 1036.34,-122 1036.34,-86 1189.66,-86 1189.66,-122"/>
<text text-anchor="middle" x="1113" y="-99.8" font-family="Times,serif" font-size="14.00">ContactsRoutingModule</text>
</g>
<!-- ContactsRoutingModule&#45;&gt;ContactsModule -->
<g id="edge6" class="edge">
<title>ContactsRoutingModule&#45;&gt;ContactsModule</title>
<path fill="none" stroke="black" d="M1113,-122.29C1113,-144.21 1113,-178 1113,-178 1113,-178 662.14,-178 662.14,-178"/>
<polygon fill="black" stroke="black" points="662.14,-174.5 652.14,-178 662.14,-181.5 662.14,-174.5"/>
</g>
<!-- SharedModule -->
<g id="node8" class="node">
<title>SharedModule</title>
<polygon fill="#8dd3c7" stroke="black" points="1018.42,-122 1015.42,-126 994.42,-126 991.42,-122 919.58,-122 919.58,-86 1018.42,-86 1018.42,-122"/>
<text text-anchor="middle" x="969" y="-99.8" font-family="Times,serif" font-size="14.00">SharedModule</text>
</g>
<!-- SharedModule&#45;&gt;ContactsModule -->
<g id="edge7" class="edge">
<title>SharedModule&#45;&gt;ContactsModule</title>
<path fill="none" stroke="black" d="M969,-122.11C969,-141.34 969,-169 969,-169 969,-169 662.34,-169 662.34,-169"/>
<polygon fill="black" stroke="black" points="662.34,-165.5 652.34,-169 662.34,-172.5 662.34,-165.5"/>
</g>
</g>
</svg>
