<?xml version="1.0" encoding="UTF-8" standalone="no"?>
<!DOCTYPE svg PUBLIC "-//W3C//DTD SVG 1.1//EN"
 "http://www.w3.org/Graphics/SVG/1.1/DTD/svg11.dtd">
<!-- Generated by graphviz version 2.47.0 (20210316.0004)
 -->
<!-- Title: dependencies Pages: 1 -->
<svg width="717pt" height="211pt"
 viewBox="0.00 0.00 717.00 211.00" xmlns="http://www.w3.org/2000/svg" xmlns:xlink="http://www.w3.org/1999/xlink">
<g id="graph0" class="graph" transform="scale(1 1) rotate(0) translate(4 207)">
<title>dependencies</title>
<polygon fill="white" stroke="transparent" points="-4,4 -4,-207 713,-207 713,4 -4,4"/>
<text text-anchor="start" x="333.51" y="-42.4" font-family="Times-12" font-weight="bold" font-size="14.00">Legend</text>
<polygon fill="#ffffb3" stroke="transparent" points="120.5,-10 120.5,-30 140.5,-30 140.5,-10 120.5,-10"/>
<text text-anchor="start" x="144.13" y="-15.4" font-family="Times-12" font-size="14.00"> &#160;Declarations</text>
<polygon fill="#8dd3c7" stroke="transparent" points="233.5,-10 233.5,-30 253.5,-30 253.5,-10 233.5,-10"/>
<text text-anchor="start" x="257.23" y="-15.4" font-family="Times-12" font-size="14.00"> &#160;Module</text>
<polygon fill="#80b1d3" stroke="transparent" points="319.5,-10 319.5,-30 339.5,-30 339.5,-10 319.5,-10"/>
<text text-anchor="start" x="343.28" y="-15.4" font-family="Times-12" font-size="14.00"> &#160;Bootstrap</text>
<polygon fill="#fdb462" stroke="transparent" points="416.5,-10 416.5,-30 436.5,-30 436.5,-10 416.5,-10"/>
<text text-anchor="start" x="440.17" y="-15.4" font-family="Times-12" font-size="14.00"> &#160;Providers</text>
<polygon fill="#fb8072" stroke="transparent" points="512.5,-10 512.5,-30 532.5,-30 532.5,-10 512.5,-10"/>
<text text-anchor="start" x="536.23" y="-15.4" font-family="Times-12" font-size="14.00"> &#160;Exports</text>
<g id="clust1" class="cluster">
<title>cluster_ConstructionsModule</title>
<polygon fill="none" stroke="black" stroke-dasharray="1,5" points="8,-70 8,-195 701,-195 701,-70 8,-70"/>
</g>
<g id="clust2" class="cluster">
<title>cluster_ConstructionsModule_declarations</title>
<polygon fill="none" stroke="black" points="338,-78 338,-130 693,-130 693,-78 338,-78"/>
</g>
<g id="clust5" class="cluster">
<title>cluster_ConstructionsModule_imports</title>
<polygon fill="none" stroke="black" points="16,-78 16,-130 330,-130 330,-78 16,-78"/>
</g>
<!-- ConstructionsComponent -->
<g id="node1" class="node">
<title>ConstructionsComponent</title>
<polygon fill="#ffffb3" stroke="black" points="684.61,-122 525.39,-122 525.39,-86 684.61,-86 684.61,-122"/>
<text text-anchor="middle" x="605" y="-99.8" font-family="Times,serif" font-size="14.00">ConstructionsComponent</text>
</g>
<!-- ConstructionsModule -->
<g id="node3" class="node">
<title>ConstructionsModule</title>
<polygon fill="#8dd3c7" stroke="black" points="397.82,-187 394.82,-191 373.82,-191 370.82,-187 260.18,-187 260.18,-151 397.82,-151 397.82,-187"/>
<text text-anchor="middle" x="329" y="-164.8" font-family="Times,serif" font-size="14.00">ConstructionsModule</text>
</g>
<!-- ConstructionsComponent&#45;&gt;ConstructionsModule -->
<g id="edge1" class="edge">
<title>ConstructionsComponent&#45;&gt;ConstructionsModule</title>
<path fill="none" stroke="black" d="M605,-122.11C605,-141.34 605,-169 605,-169 605,-169 407.93,-169 407.93,-169"/>
<polygon fill="black" stroke="black" points="407.93,-165.5 397.93,-169 407.93,-172.5 407.93,-165.5"/>
</g>
<!-- FeatureDialogComponent -->
<g id="node2" class="node">
<title>FeatureDialogComponent</title>
<polygon fill="#ffffb3" stroke="black" points="507.91,-122 346.09,-122 346.09,-86 507.91,-86 507.91,-122"/>
<text text-anchor="middle" x="427" y="-99.8" font-family="Times,serif" font-size="14.00">FeatureDialogComponent</text>
</g>
<!-- FeatureDialogComponent&#45;&gt;ConstructionsModule -->
<g id="edge2" class="edge">
<title>FeatureDialogComponent&#45;&gt;ConstructionsModule</title>
<path fill="none" stroke="black" d="M371.98,-122.11C371.98,-122.11 371.98,-140.99 371.98,-140.99"/>
<polygon fill="black" stroke="black" points="368.48,-140.99 371.98,-150.99 375.48,-140.99 368.48,-140.99"/>
</g>
<!-- ConstructionsRoutingModule -->
<g id="node4" class="node">
<title>ConstructionsRoutingModule</title>
<polygon fill="#8dd3c7" stroke="black" points="322.44,-122 319.44,-126 298.44,-126 295.44,-122 139.56,-122 139.56,-86 322.44,-86 322.44,-122"/>
<text text-anchor="middle" x="231" y="-99.8" font-family="Times,serif" font-size="14.00">ConstructionsRoutingModule</text>
</g>
<!-- ConstructionsRoutingModule&#45;&gt;ConstructionsModule -->
<g id="edge3" class="edge">
<title>ConstructionsRoutingModule&#45;&gt;ConstructionsModule</title>
<path fill="none" stroke="black" d="M291.28,-122.11C291.28,-122.11 291.28,-140.99 291.28,-140.99"/>
<polygon fill="black" stroke="black" points="287.78,-140.99 291.28,-150.99 294.78,-140.99 287.78,-140.99"/>
</g>
<!-- SharedModule -->
<g id="node5" class="node">
<title>SharedModule</title>
<polygon fill="#8dd3c7" stroke="black" points="122.42,-122 119.42,-126 98.42,-126 95.42,-122 23.58,-122 23.58,-86 122.42,-86 122.42,-122"/>
<text text-anchor="middle" x="73" y="-99.8" font-family="Times,serif" font-size="14.00">SharedModule</text>
</g>
<!-- SharedModule&#45;&gt;ConstructionsModule -->
<g id="edge4" class="edge">
<title>SharedModule&#45;&gt;ConstructionsModule</title>
<path fill="none" stroke="black" d="M73,-122.11C73,-141.34 73,-169 73,-169 73,-169 250.06,-169 250.06,-169"/>
<polygon fill="black" stroke="black" points="250.06,-172.5 260.06,-169 250.06,-165.5 250.06,-172.5"/>
</g>
</g>
</svg>
