<?xml version="1.0" encoding="UTF-8" standalone="no"?>
<!DOCTYPE svg PUBLIC "-//W3C//DTD SVG 1.1//EN"
 "http://www.w3.org/Graphics/SVG/1.1/DTD/svg11.dtd">
<!-- Generated by graphviz version 2.47.0 (20210316.0004)
 -->
<!-- Title: dependencies Pages: 1 -->
<svg width="762pt" height="211pt"
 viewBox="0.00 0.00 762.00 211.00" xmlns="http://www.w3.org/2000/svg" xmlns:xlink="http://www.w3.org/1999/xlink">
<g id="graph0" class="graph" transform="scale(1 1) rotate(0) translate(4 207)">
<title>dependencies</title>
<polygon fill="white" stroke="transparent" points="-4,4 -4,-207 758,-207 758,4 -4,4"/>
<text text-anchor="start" x="356.01" y="-42.4" font-family="Times-12" font-weight="bold" font-size="14.00">Legend</text>
<polygon fill="#ffffb3" stroke="transparent" points="143,-10 143,-30 163,-30 163,-10 143,-10"/>
<text text-anchor="start" x="166.63" y="-15.4" font-family="Times-12" font-size="14.00"> &#160;Declarations</text>
<polygon fill="#8dd3c7" stroke="transparent" points="256,-10 256,-30 276,-30 276,-10 256,-10"/>
<text text-anchor="start" x="279.73" y="-15.4" font-family="Times-12" font-size="14.00"> &#160;Module</text>
<polygon fill="#80b1d3" stroke="transparent" points="342,-10 342,-30 362,-30 362,-10 342,-10"/>
<text text-anchor="start" x="365.78" y="-15.4" font-family="Times-12" font-size="14.00"> &#160;Bootstrap</text>
<polygon fill="#fdb462" stroke="transparent" points="439,-10 439,-30 459,-30 459,-10 439,-10"/>
<text text-anchor="start" x="462.67" y="-15.4" font-family="Times-12" font-size="14.00"> &#160;Providers</text>
<polygon fill="#fb8072" stroke="transparent" points="535,-10 535,-30 555,-30 555,-10 535,-10"/>
<text text-anchor="start" x="558.73" y="-15.4" font-family="Times-12" font-size="14.00"> &#160;Exports</text>
<g id="clust1" class="cluster">
<title>cluster_CostEstimatesModule</title>
<polygon fill="none" stroke="black" stroke-dasharray="1,5" points="8,-70 8,-195 746,-195 746,-70 8,-70"/>
</g>
<g id="clust5" class="cluster">
<title>cluster_CostEstimatesModule_imports</title>
<polygon fill="none" stroke="black" points="421,-78 421,-130 738,-130 738,-78 421,-78"/>
</g>
<g id="clust2" class="cluster">
<title>cluster_CostEstimatesModule_declarations</title>
<polygon fill="none" stroke="black" points="16,-78 16,-130 413,-130 413,-78 16,-78"/>
</g>
<!-- CostEstimatesComponent -->
<g id="node1" class="node">
<title>CostEstimatesComponent</title>
<polygon fill="#ffffb3" stroke="black" points="404.94,-122 243.06,-122 243.06,-86 404.94,-86 404.94,-122"/>
<text text-anchor="middle" x="324" y="-99.8" font-family="Times,serif" font-size="14.00">CostEstimatesComponent</text>
</g>
<!-- CostEstimatesModule -->
<g id="node3" class="node">
<title>CostEstimatesModule</title>
<polygon fill="#8dd3c7" stroke="black" points="470.66,-187 467.66,-191 446.66,-191 443.66,-187 331.34,-187 331.34,-151 470.66,-151 470.66,-187"/>
<text text-anchor="middle" x="401" y="-164.8" font-family="Times,serif" font-size="14.00">CostEstimatesModule</text>
</g>
<!-- CostEstimatesComponent&#45;&gt;CostEstimatesModule -->
<g id="edge1" class="edge">
<title>CostEstimatesComponent&#45;&gt;CostEstimatesModule</title>
<path fill="none" stroke="black" d="M367.95,-122.11C367.95,-122.11 367.95,-140.99 367.95,-140.99"/>
<polygon fill="black" stroke="black" points="364.45,-140.99 367.95,-150.99 371.45,-140.99 364.45,-140.99"/>
</g>
<!-- CostEstimatesDetailsComponent -->
<g id="node2" class="node">
<title>CostEstimatesDetailsComponent</title>
<polygon fill="#ffffb3" stroke="black" points="225.59,-122 24.41,-122 24.41,-86 225.59,-86 225.59,-122"/>
<text text-anchor="middle" x="125" y="-99.8" font-family="Times,serif" font-size="14.00">CostEstimatesDetailsComponent</text>
</g>
<!-- CostEstimatesDetailsComponent&#45;&gt;CostEstimatesModule -->
<g id="edge2" class="edge">
<title>CostEstimatesDetailsComponent&#45;&gt;CostEstimatesModule</title>
<path fill="none" stroke="black" d="M125,-122.11C125,-141.34 125,-169 125,-169 125,-169 321,-169 321,-169"/>
<polygon fill="black" stroke="black" points="321,-172.5 331,-169 321,-165.5 321,-172.5"/>
</g>
<!-- CostEstimatesRoutingModule -->
<g id="node4" class="node">
<title>CostEstimatesRoutingModule</title>
<polygon fill="#8dd3c7" stroke="black" points="730.27,-122 727.27,-126 706.27,-126 703.27,-122 545.73,-122 545.73,-86 730.27,-86 730.27,-122"/>
<text text-anchor="middle" x="638" y="-99.8" font-family="Times,serif" font-size="14.00">CostEstimatesRoutingModule</text>
</g>
<!-- CostEstimatesRoutingModule&#45;&gt;CostEstimatesModule -->
<g id="edge3" class="edge">
<title>CostEstimatesRoutingModule&#45;&gt;CostEstimatesModule</title>
<path fill="none" stroke="black" d="M638,-122.11C638,-141.34 638,-169 638,-169 638,-169 480.83,-169 480.83,-169"/>
<polygon fill="black" stroke="black" points="480.83,-165.5 470.83,-169 480.83,-172.5 480.83,-165.5"/>
</g>
<!-- SharedModule -->
<g id="node5" class="node">
<title>SharedModule</title>
<polygon fill="#8dd3c7" stroke="black" points="527.42,-122 524.42,-126 503.42,-126 500.42,-122 428.58,-122 428.58,-86 527.42,-86 527.42,-122"/>
<text text-anchor="middle" x="478" y="-99.8" font-family="Times,serif" font-size="14.00">SharedModule</text>
</g>
<!-- SharedModule&#45;&gt;CostEstimatesModule -->
<g id="edge4" class="edge">
<title>SharedModule&#45;&gt;CostEstimatesModule</title>
<path fill="none" stroke="black" d="M449.81,-122.11C449.81,-122.11 449.81,-140.99 449.81,-140.99"/>
<polygon fill="black" stroke="black" points="446.31,-140.99 449.81,-150.99 453.31,-140.99 446.31,-140.99"/>
</g>
</g>
</svg>
