<?xml version="1.0" encoding="UTF-8" standalone="no"?>
<!DOCTYPE svg PUBLIC "-//W3C//DTD SVG 1.1//EN"
 "http://www.w3.org/Graphics/SVG/1.1/DTD/svg11.dtd">
<!-- Generated by graphviz version 2.47.0 (20210316.0004)
 -->
<!-- Title: dependencies Pages: 1 -->
<svg width="1264pt" height="284pt"
 viewBox="0.00 0.00 1264.00 284.00" xmlns="http://www.w3.org/2000/svg" xmlns:xlink="http://www.w3.org/1999/xlink">
<g id="graph0" class="graph" transform="scale(1 1) rotate(0) translate(4 280)">
<title>dependencies</title>
<polygon fill="white" stroke="transparent" points="-4,4 -4,-280 1260,-280 1260,4 -4,4"/>
<text text-anchor="start" x="607.01" y="-42.4" font-family="Times-12" font-weight="bold" font-size="14.00">Legend</text>
<polygon fill="#ffffb3" stroke="transparent" points="394,-10 394,-30 414,-30 414,-10 394,-10"/>
<text text-anchor="start" x="417.63" y="-15.4" font-family="Times-12" font-size="14.00"> &#160;Declarations</text>
<polygon fill="#8dd3c7" stroke="transparent" points="507,-10 507,-30 527,-30 527,-10 507,-10"/>
<text text-anchor="start" x="530.73" y="-15.4" font-family="Times-12" font-size="14.00"> &#160;Module</text>
<polygon fill="#80b1d3" stroke="transparent" points="593,-10 593,-30 613,-30 613,-10 593,-10"/>
<text text-anchor="start" x="616.78" y="-15.4" font-family="Times-12" font-size="14.00"> &#160;Bootstrap</text>
<polygon fill="#fdb462" stroke="transparent" points="690,-10 690,-30 710,-30 710,-10 690,-10"/>
<text text-anchor="start" x="713.67" y="-15.4" font-family="Times-12" font-size="14.00"> &#160;Providers</text>
<polygon fill="#fb8072" stroke="transparent" points="786,-10 786,-30 806,-30 806,-10 786,-10"/>
<text text-anchor="start" x="809.73" y="-15.4" font-family="Times-12" font-size="14.00"> &#160;Exports</text>
<g id="clust1" class="cluster">
<title>cluster_SharedModule</title>
<polygon fill="none" stroke="black" stroke-dasharray="1,5" points="8,-70 8,-268 1248,-268 1248,-70 8,-70"/>
</g>
<g id="clust9" class="cluster">
<title>cluster_SharedModule_providers</title>
<polygon fill="none" stroke="black" points="510,-78 510,-130 1240,-130 1240,-78 510,-78"/>
</g>
<g id="clust7" class="cluster">
<title>cluster_SharedModule_exports</title>
<polygon fill="none" stroke="black" points="517,-208 517,-260 653,-260 653,-208 517,-208"/>
</g>
<g id="clust2" class="cluster">
<title>cluster_SharedModule_declarations</title>
<polygon fill="none" stroke="black" points="16,-78 16,-130 502,-130 502,-78 16,-78"/>
</g>
<!-- ConfirmDialogComponent -->
<g id="node1" class="node">
<title>ConfirmDialogComponent</title>
<polygon fill="#ffffb3" stroke="black" points="494.37,-122 327.63,-122 327.63,-86 494.37,-86 494.37,-122"/>
<text text-anchor="middle" x="411" y="-99.8" font-family="Times,serif" font-size="14.00">ConfirmDialogComponent</text>
</g>
<!-- SharedModule -->
<g id="node4" class="node">
<title>SharedModule</title>
<polygon fill="#8dd3c7" stroke="black" points="634.42,-187 631.42,-191 610.42,-191 607.42,-187 535.58,-187 535.58,-151 634.42,-151 634.42,-187"/>
<text text-anchor="middle" x="585" y="-164.8" font-family="Times,serif" font-size="14.00">SharedModule</text>
</g>
<!-- ConfirmDialogComponent&#45;&gt;SharedModule -->
<g id="edge1" class="edge">
<title>ConfirmDialogComponent&#45;&gt;SharedModule</title>
<path fill="none" stroke="black" d="M411,-122.03C411,-138.4 411,-160 411,-160 411,-160 525.6,-160 525.6,-160"/>
<polygon fill="black" stroke="black" points="525.6,-163.5 535.6,-160 525.6,-156.5 525.6,-163.5"/>
</g>
<!-- MenuButtonComponent -->
<g id="node2" class="node">
<title>MenuButtonComponent</title>
<polygon fill="#ffffb3" stroke="black" points="310.11,-122 157.89,-122 157.89,-86 310.11,-86 310.11,-122"/>
<text text-anchor="middle" x="234" y="-99.8" font-family="Times,serif" font-size="14.00">MenuButtonComponent</text>
</g>
<!-- MenuButtonComponent&#45;&gt;SharedModule -->
<g id="edge2" class="edge">
<title>MenuButtonComponent&#45;&gt;SharedModule</title>
<path fill="none" stroke="black" d="M234,-122.11C234,-141.34 234,-169 234,-169 234,-169 525.45,-169 525.45,-169"/>
<polygon fill="black" stroke="black" points="525.45,-172.5 535.45,-169 525.45,-165.5 525.45,-172.5"/>
</g>
<!-- PhoneFormatPipe -->
<g id="node3" class="node">
<title>PhoneFormatPipe</title>
<polygon fill="#ffffb3" stroke="black" points="140.32,-122 23.68,-122 23.68,-86 140.32,-86 140.32,-122"/>
<text text-anchor="middle" x="82" y="-99.8" font-family="Times,serif" font-size="14.00">PhoneFormatPipe</text>
</g>
<!-- PhoneFormatPipe&#45;&gt;SharedModule -->
<g id="edge3" class="edge">
<title>PhoneFormatPipe&#45;&gt;SharedModule</title>
<path fill="none" stroke="black" d="M82,-122.29C82,-144.21 82,-178 82,-178 82,-178 525.39,-178 525.39,-178"/>
<polygon fill="black" stroke="black" points="525.39,-181.5 535.39,-178 525.39,-174.5 525.39,-181.5"/>
</g>
<!-- PhoneFormatPipe  -->
<g id="node5" class="node">
<title>PhoneFormatPipe </title>
<polygon fill="#fb8072" stroke="black" points="644.82,-252 525.18,-252 525.18,-216 644.82,-216 644.82,-252"/>
<text text-anchor="middle" x="585" y="-229.8" font-family="Times,serif" font-size="14.00">PhoneFormatPipe </text>
</g>
<!-- SharedModule&#45;&gt;PhoneFormatPipe  -->
<g id="edge4" class="edge">
<title>SharedModule&#45;&gt;PhoneFormatPipe </title>
<path fill="none" stroke="black" stroke-dasharray="5,2" d="M585,-187.11C585,-187.11 585,-205.99 585,-205.99"/>
<polygon fill="black" stroke="black" points="581.5,-205.99 585,-215.99 588.5,-205.99 581.5,-205.99"/>
</g>
<!-- AuthService -->
<g id="node6" class="node">
<title>AuthService</title>
<ellipse fill="#fdb462" stroke="black" cx="1173" cy="-104" rx="59.11" ry="18"/>
<text text-anchor="middle" x="1173" y="-99.8" font-family="Times,serif" font-size="14.00">AuthService</text>
</g>
<!-- AuthService&#45;&gt;SharedModule -->
<g id="edge5" class="edge">
<title>AuthService&#45;&gt;SharedModule</title>
<path fill="none" stroke="black" d="M1173,-122.29C1173,-144.21 1173,-178 1173,-178 1173,-178 644.37,-178 644.37,-178"/>
<polygon fill="black" stroke="black" points="644.37,-174.5 634.37,-178 644.37,-181.5 644.37,-174.5"/>
</g>
<!-- LocalStorageSeederService -->
<g id="node7" class="node">
<title>LocalStorageSeederService</title>
<ellipse fill="#fdb462" stroke="black" cx="978" cy="-104" rx="117.99" ry="18"/>
<text text-anchor="middle" x="978" y="-99.8" font-family="Times,serif" font-size="14.00">LocalStorageSeederService</text>
</g>
<!-- LocalStorageSeederService&#45;&gt;SharedModule -->
<g id="edge6" class="edge">
<title>LocalStorageSeederService&#45;&gt;SharedModule</title>
<path fill="none" stroke="black" d="M978,-122.11C978,-141.34 978,-169 978,-169 978,-169 644.38,-169 644.38,-169"/>
<polygon fill="black" stroke="black" points="644.38,-165.5 634.38,-169 644.38,-172.5 644.38,-165.5"/>
</g>
<!-- NotificationService -->
<g id="node8" class="node">
<title>NotificationService</title>
<ellipse fill="#fdb462" stroke="black" cx="756" cy="-104" rx="86.81" ry="18"/>
<text text-anchor="middle" x="756" y="-99.8" font-family="Times,serif" font-size="14.00">NotificationService</text>
</g>
<!-- NotificationService&#45;&gt;SharedModule -->
<g id="edge7" class="edge">
<title>NotificationService&#45;&gt;SharedModule</title>
<path fill="none" stroke="black" d="M756,-122.03C756,-138.4 756,-160 756,-160 756,-160 644.46,-160 644.46,-160"/>
<polygon fill="black" stroke="black" points="644.46,-156.5 634.46,-160 644.46,-163.5 644.46,-156.5"/>
</g>
<!-- ThemeService -->
<g id="node9" class="node">
<title>ThemeService</title>
<ellipse fill="#fdb462" stroke="black" cx="585" cy="-104" rx="66.61" ry="18"/>
<text text-anchor="middle" x="585" y="-99.8" font-family="Times,serif" font-size="14.00">ThemeService</text>
</g>
<!-- ThemeService&#45;&gt;SharedModule -->
<g id="edge8" class="edge">
<title>ThemeService&#45;&gt;SharedModule</title>
<path fill="none" stroke="black" d="M585,-122.11C585,-122.11 585,-140.99 585,-140.99"/>
<polygon fill="black" stroke="black" points="581.5,-140.99 585,-150.99 588.5,-140.99 581.5,-140.99"/>
</g>
</g>
</svg>
