<?xml version="1.0" encoding="UTF-8" standalone="no"?>
<!DOCTYPE svg PUBLIC "-//W3C//DTD SVG 1.1//EN"
 "http://www.w3.org/Graphics/SVG/1.1/DTD/svg11.dtd">
<!-- Generated by graphviz version 2.47.0 (20210316.0004)
 -->
<!-- Title: dependencies Pages: 1 -->
<svg width="4496pt" height="360pt"
 viewBox="0.00 0.00 4496.00 360.00" xmlns="http://www.w3.org/2000/svg" xmlns:xlink="http://www.w3.org/1999/xlink">
<g id="graph0" class="graph" transform="scale(1 1) rotate(0) translate(4 356)">
<title>dependencies</title>
<polygon fill="white" stroke="transparent" points="-4,4 -4,-356 4492,-356 4492,4 -4,4"/>
<text text-anchor="start" x="2223.01" y="-42.4" font-family="Times-12" font-weight="bold" font-size="14.00">Legend</text>
<polygon fill="#ffffb3" stroke="transparent" points="2010,-10 2010,-30 2030,-30 2030,-10 2010,-10"/>
<text text-anchor="start" x="2033.63" y="-15.4" font-family="Times-12" font-size="14.00"> &#160;Declarations</text>
<polygon fill="#8dd3c7" stroke="transparent" points="2123,-10 2123,-30 2143,-30 2143,-10 2123,-10"/>
<text text-anchor="start" x="2146.73" y="-15.4" font-family="Times-12" font-size="14.00"> &#160;Module</text>
<polygon fill="#80b1d3" stroke="transparent" points="2209,-10 2209,-30 2229,-30 2229,-10 2209,-10"/>
<text text-anchor="start" x="2232.78" y="-15.4" font-family="Times-12" font-size="14.00"> &#160;Bootstrap</text>
<polygon fill="#fdb462" stroke="transparent" points="2306,-10 2306,-30 2326,-30 2326,-10 2306,-10"/>
<text text-anchor="start" x="2329.67" y="-15.4" font-family="Times-12" font-size="14.00"> &#160;Providers</text>
<polygon fill="#fb8072" stroke="transparent" points="2402,-10 2402,-30 2422,-30 2422,-10 2402,-10"/>
<text text-anchor="start" x="2425.73" y="-15.4" font-family="Times-12" font-size="14.00"> &#160;Exports</text>
<g id="clust1" class="cluster">
<title>cluster_AppModule</title>
<polygon fill="none" stroke="black" stroke-dasharray="1,5" points="593,-146 593,-344 2080,-344 2080,-146 593,-146"/>
</g>
<g id="clust2" class="cluster">
<title>cluster_AppModule_declarations</title>
<polygon fill="none" stroke="black" points="601,-154 601,-206 1803,-206 1803,-154 601,-154"/>
</g>
<g id="clust11" class="cluster">
<title>cluster_AppModule_imports</title>
<polygon fill="none" stroke="black" points="1811,-154 1811,-206 2072,-206 2072,-154 1811,-154"/>
</g>
<g id="clust13" class="cluster">
<title>cluster_AppModule_bootstrap</title>
<polygon fill="none" stroke="black" points="1297,-284 1297,-336 1421,-336 1421,-284 1297,-284"/>
</g>
<g id="clust21" class="cluster">
<title>cluster_ConstructionsModule</title>
<polygon fill="none" stroke="black" stroke-dasharray="1,5" points="8,-146 8,-271 585,-271 585,-146 8,-146"/>
</g>
<g id="clust22" class="cluster">
<title>cluster_ConstructionsModule_declarations</title>
<polygon fill="none" stroke="black" points="222,-154 222,-206 577,-206 577,-154 222,-154"/>
</g>
<g id="clust25" class="cluster">
<title>cluster_ConstructionsModule_imports</title>
<polygon fill="none" stroke="black" points="16,-154 16,-206 214,-206 214,-154 16,-154"/>
</g>
<g id="clust35" class="cluster">
<title>cluster_ContactsModule</title>
<polygon fill="none" stroke="black" stroke-dasharray="1,5" points="2088,-146 2088,-271 3171,-271 3171,-146 2088,-146"/>
</g>
<g id="clust36" class="cluster">
<title>cluster_ContactsModule_declarations</title>
<polygon fill="none" stroke="black" points="2274,-154 2274,-206 3163,-206 3163,-154 2274,-154"/>
</g>
<g id="clust42" class="cluster">
<title>cluster_ContactsModule_imports</title>
<polygon fill="none" stroke="black" points="2096,-154 2096,-206 2266,-206 2266,-154 2096,-154"/>
</g>
<g id="clust52" class="cluster">
<title>cluster_CostEstimatesModule</title>
<polygon fill="none" stroke="black" stroke-dasharray="1,5" points="3179,-146 3179,-271 3800,-271 3800,-146 3179,-146"/>
</g>
<g id="clust53" class="cluster">
<title>cluster_CostEstimatesModule_declarations</title>
<polygon fill="none" stroke="black" points="3395,-154 3395,-206 3792,-206 3792,-154 3395,-154"/>
</g>
<g id="clust56" class="cluster">
<title>cluster_CostEstimatesModule_imports</title>
<polygon fill="none" stroke="black" points="3187,-154 3187,-206 3387,-206 3387,-154 3187,-154"/>
</g>
<g id="clust66" class="cluster">
<title>cluster_SharedModule</title>
<polygon fill="none" stroke="black" stroke-dasharray="1,5" points="1272,-70 1272,-138 2657,-138 2657,-70 1272,-70"/>
</g>
<g id="clust67" class="cluster">
<title>cluster_SharedModule_declarations</title>
<polygon fill="none" stroke="black" points="2162,-78 2162,-130 2649,-130 2649,-78 2162,-78"/>
</g>
<g id="clust72" class="cluster">
<title>cluster_SharedModule_exports</title>
<polygon fill="none" stroke="black" points="2018,-78 2018,-130 2154,-130 2154,-78 2018,-78"/>
</g>
<g id="clust74" class="cluster">
<title>cluster_SharedModule_providers</title>
<polygon fill="none" stroke="black" points="1280,-78 1280,-130 2010,-130 2010,-78 1280,-78"/>
</g>
<g id="clust75" class="cluster">
<title>cluster_TasksModule</title>
<polygon fill="none" stroke="black" stroke-dasharray="1,5" points="3808,-146 3808,-271 4116,-271 4116,-146 3808,-146"/>
</g>
<g id="clust76" class="cluster">
<title>cluster_TasksModule_declarations</title>
<polygon fill="none" stroke="black" points="3978,-154 3978,-206 4108,-206 4108,-154 3978,-154"/>
</g>
<g id="clust78" class="cluster">
<title>cluster_TasksModule_imports</title>
<polygon fill="none" stroke="black" points="3816,-154 3816,-206 3970,-206 3970,-154 3816,-154"/>
</g>
<g id="clust88" class="cluster">
<title>cluster_UserPanelModule</title>
<polygon fill="none" stroke="black" stroke-dasharray="1,5" points="4124,-146 4124,-271 4480,-271 4480,-146 4124,-146"/>
</g>
<g id="clust89" class="cluster">
<title>cluster_UserPanelModule_declarations</title>
<polygon fill="none" stroke="black" points="4318,-154 4318,-206 4472,-206 4472,-154 4318,-154"/>
</g>
<g id="clust91" class="cluster">
<title>cluster_UserPanelModule_imports</title>
<polygon fill="none" stroke="black" points="4132,-154 4132,-206 4310,-206 4310,-154 4132,-154"/>
</g>
<!-- AccountComponent -->
<g id="node1" class="node">
<title>AccountComponent</title>
<polygon fill="#ffffb3" stroke="black" points="1195.26,-198 1066.74,-198 1066.74,-162 1195.26,-162 1195.26,-198"/>
<text text-anchor="middle" x="1131" y="-175.8" font-family="Times,serif" font-size="14.00">AccountComponent</text>
</g>
<!-- AppModule -->
<g id="node9" class="node">
<title>AppModule</title>
<polygon fill="#8dd3c7" stroke="black" points="1400.66,-263 1397.66,-267 1376.66,-267 1373.66,-263 1317.34,-263 1317.34,-227 1400.66,-227 1400.66,-263"/>
<text text-anchor="middle" x="1359" y="-240.8" font-family="Times,serif" font-size="14.00">AppModule</text>
</g>
<!-- AccountComponent&#45;&gt;AppModule -->
<g id="edge1" class="edge">
<title>AccountComponent&#45;&gt;AppModule</title>
<path fill="none" stroke="black" d="M1131,-198.01C1131,-214.05 1131,-235 1131,-235 1131,-235 1307.18,-235 1307.18,-235"/>
<polygon fill="black" stroke="black" points="1307.18,-238.5 1317.18,-235 1307.18,-231.5 1307.18,-238.5"/>
</g>
<!-- AppComponent -->
<g id="node2" class="node">
<title>AppComponent</title>
<polygon fill="#ffffb3" stroke="black" points="1048.94,-198 943.06,-198 943.06,-162 1048.94,-162 1048.94,-198"/>
<text text-anchor="middle" x="996" y="-175.8" font-family="Times,serif" font-size="14.00">AppComponent</text>
</g>
<!-- AppComponent&#45;&gt;AppModule -->
<g id="edge2" class="edge">
<title>AppComponent&#45;&gt;AppModule</title>
<path fill="none" stroke="black" d="M996,-198.27C996,-216.56 996,-242 996,-242 996,-242 1307,-242 1307,-242"/>
<polygon fill="black" stroke="black" points="1307,-245.5 1317,-242 1307,-238.5 1307,-245.5"/>
</g>
<!-- HeaderComponent -->
<g id="node3" class="node">
<title>HeaderComponent</title>
<polygon fill="#ffffb3" stroke="black" points="924.74,-198 803.26,-198 803.26,-162 924.74,-162 924.74,-198"/>
<text text-anchor="middle" x="864" y="-175.8" font-family="Times,serif" font-size="14.00">HeaderComponent</text>
</g>
<!-- HeaderComponent&#45;&gt;AppModule -->
<g id="edge3" class="edge">
<title>HeaderComponent&#45;&gt;AppModule</title>
<path fill="none" stroke="black" d="M864,-198.13C864,-218.57 864,-249 864,-249 864,-249 1307.22,-249 1307.22,-249"/>
<polygon fill="black" stroke="black" points="1307.22,-252.5 1317.22,-249 1307.22,-245.5 1307.22,-252.5"/>
</g>
<!-- HeaderWelcomeComponent -->
<g id="node4" class="node">
<title>HeaderWelcomeComponent</title>
<polygon fill="#ffffb3" stroke="black" points="784.88,-198 609.12,-198 609.12,-162 784.88,-162 784.88,-198"/>
<text text-anchor="middle" x="697" y="-175.8" font-family="Times,serif" font-size="14.00">HeaderWelcomeComponent</text>
</g>
<!-- HeaderWelcomeComponent&#45;&gt;AppModule -->
<g id="edge4" class="edge">
<title>HeaderWelcomeComponent&#45;&gt;AppModule</title>
<path fill="none" stroke="black" d="M697,-198.01C697,-220.49 697,-256 697,-256 697,-256 1307.34,-256 1307.34,-256"/>
<polygon fill="black" stroke="black" points="1307.34,-259.5 1317.34,-256 1307.34,-252.5 1307.34,-259.5"/>
</g>
<!-- LayoutComponent -->
<g id="node5" class="node">
<title>LayoutComponent</title>
<polygon fill="#ffffb3" stroke="black" points="1795.49,-198 1674.51,-198 1674.51,-162 1795.49,-162 1795.49,-198"/>
<text text-anchor="middle" x="1735" y="-175.8" font-family="Times,serif" font-size="14.00">LayoutComponent</text>
</g>
<!-- LayoutComponent&#45;&gt;AppModule -->
<g id="edge5" class="edge">
<title>LayoutComponent&#45;&gt;AppModule</title>
<path fill="none" stroke="black" d="M1735,-198.03C1735,-214.4 1735,-236 1735,-236 1735,-236 1410.68,-236 1410.68,-236"/>
<polygon fill="black" stroke="black" points="1410.68,-232.5 1400.68,-236 1410.68,-239.5 1410.68,-232.5"/>
</g>
<!-- LoginComponent -->
<g id="node6" class="node">
<title>LoginComponent</title>
<polygon fill="#ffffb3" stroke="black" points="1656.28,-198 1541.72,-198 1541.72,-162 1656.28,-162 1656.28,-198"/>
<text text-anchor="middle" x="1599" y="-175.8" font-family="Times,serif" font-size="14.00">LoginComponent</text>
</g>
<!-- LoginComponent&#45;&gt;AppModule -->
<g id="edge6" class="edge">
<title>LoginComponent&#45;&gt;AppModule</title>
<path fill="none" stroke="black" d="M1599,-198.19C1599,-213.18 1599,-232 1599,-232 1599,-232 1410.8,-232 1410.8,-232"/>
<polygon fill="black" stroke="black" points="1410.8,-228.5 1400.8,-232 1410.8,-235.5 1410.8,-228.5"/>
</g>
<!-- PageNotFoundComponent -->
<g id="node7" class="node">
<title>PageNotFoundComponent</title>
<polygon fill="#ffffb3" stroke="black" points="1523.82,-198 1358.18,-198 1358.18,-162 1523.82,-162 1523.82,-198"/>
<text text-anchor="middle" x="1441" y="-175.8" font-family="Times,serif" font-size="14.00">PageNotFoundComponent</text>
</g>
<!-- PageNotFoundComponent&#45;&gt;AppModule -->
<g id="edge7" class="edge">
<title>PageNotFoundComponent&#45;&gt;AppModule</title>
<path fill="none" stroke="black" d="M1379.58,-198.11C1379.58,-198.11 1379.58,-216.99 1379.58,-216.99"/>
<polygon fill="black" stroke="black" points="1376.08,-216.99 1379.58,-226.99 1383.08,-216.99 1376.08,-216.99"/>
</g>
<!-- SettingsComponent -->
<g id="node8" class="node">
<title>SettingsComponent</title>
<polygon fill="#ffffb3" stroke="black" points="1340.45,-198 1213.55,-198 1213.55,-162 1340.45,-162 1340.45,-198"/>
<text text-anchor="middle" x="1277" y="-175.8" font-family="Times,serif" font-size="14.00">SettingsComponent</text>
</g>
<!-- SettingsComponent&#45;&gt;AppModule -->
<g id="edge8" class="edge">
<title>SettingsComponent&#45;&gt;AppModule</title>
<path fill="none" stroke="black" d="M1328.7,-198.11C1328.7,-198.11 1328.7,-216.99 1328.7,-216.99"/>
<polygon fill="black" stroke="black" points="1325.2,-216.99 1328.7,-226.99 1332.2,-216.99 1325.2,-216.99"/>
</g>
<!-- AppComponent  -->
<g id="node12" class="node">
<title>AppComponent </title>
<polygon fill="#80b1d3" stroke="black" points="1413.44,-328 1304.56,-328 1304.56,-292 1413.44,-292 1413.44,-328"/>
<text text-anchor="middle" x="1359" y="-305.8" font-family="Times,serif" font-size="14.00">AppComponent </text>
</g>
<!-- AppModule&#45;&gt;AppComponent  -->
<g id="edge11" class="edge">
<title>AppModule&#45;&gt;AppComponent </title>
<path fill="none" stroke="black" stroke-dasharray="1,5" d="M1359,-263.11C1359,-263.11 1359,-281.99 1359,-281.99"/>
<polygon fill="black" stroke="black" points="1355.5,-281.99 1359,-291.99 1362.5,-281.99 1355.5,-281.99"/>
</g>
<!-- AppRoutingModule -->
<g id="node10" class="node">
<title>AppRoutingModule</title>
<polygon fill="#8dd3c7" stroke="black" points="1947.27,-198 1944.27,-202 1923.27,-202 1920.27,-198 1818.73,-198 1818.73,-162 1947.27,-162 1947.27,-198"/>
<text text-anchor="middle" x="1883" y="-175.8" font-family="Times,serif" font-size="14.00">AppRoutingModule</text>
</g>
<!-- AppRoutingModule&#45;&gt;AppModule -->
<g id="edge9" class="edge">
<title>AppRoutingModule&#45;&gt;AppModule</title>
<path fill="none" stroke="black" d="M1883,-198.3C1883,-216.27 1883,-241 1883,-241 1883,-241 1411,-241 1411,-241"/>
<polygon fill="black" stroke="black" points="1411,-237.5 1401,-241 1411,-244.5 1411,-237.5"/>
</g>
<!-- SharedModule -->
<g id="node11" class="node">
<title>SharedModule</title>
<polygon fill="#8dd3c7" stroke="black" points="2064.42,-198 2061.42,-202 2040.42,-202 2037.42,-198 1965.58,-198 1965.58,-162 2064.42,-162 2064.42,-198"/>
<text text-anchor="middle" x="2015" y="-175.8" font-family="Times,serif" font-size="14.00">SharedModule</text>
</g>
<!-- SharedModule&#45;&gt;AppModule -->
<g id="edge10" class="edge">
<title>SharedModule&#45;&gt;AppModule</title>
<path fill="none" stroke="black" d="M2036.09,-198.11C2036.09,-217.34 2036.09,-245 2036.09,-245 2036.09,-245 1410.84,-245 1410.84,-245"/>
<polygon fill="black" stroke="black" points="1410.84,-241.5 1400.84,-245 1410.84,-248.5 1410.84,-241.5"/>
</g>
<!-- ConstructionsModule -->
<g id="node15" class="node">
<title>ConstructionsModule</title>
<polygon fill="#8dd3c7" stroke="black" points="468.82,-263 465.82,-267 444.82,-267 441.82,-263 331.18,-263 331.18,-227 468.82,-227 468.82,-263"/>
<text text-anchor="middle" x="400" y="-240.8" font-family="Times,serif" font-size="14.00">ConstructionsModule</text>
</g>
<!-- SharedModule&#45;&gt;ConstructionsModule -->
<g id="edge15" class="edge">
<title>SharedModule&#45;&gt;ConstructionsModule</title>
<path fill="none" stroke="black" d="M1979.85,-198.42C1979.85,-207.28 1979.85,-216 1979.85,-216 1979.85,-216 448.92,-216 448.92,-216 448.92,-216 448.92,-217.08 448.92,-217.08"/>
<polygon fill="black" stroke="black" points="445.42,-216.8 448.92,-226.8 452.42,-216.8 445.42,-216.8"/>
</g>
<!-- ContactsModule -->
<g id="node22" class="node">
<title>ContactsModule</title>
<polygon fill="#8dd3c7" stroke="black" points="2588.04,-263 2585.04,-267 2564.04,-267 2561.04,-263 2479.96,-263 2479.96,-227 2588.04,-227 2588.04,-263"/>
<text text-anchor="middle" x="2534" y="-240.8" font-family="Times,serif" font-size="14.00">ContactsModule</text>
</g>
<!-- SharedModule&#45;&gt;ContactsModule -->
<g id="edge22" class="edge">
<title>SharedModule&#45;&gt;ContactsModule</title>
<path fill="none" stroke="black" d="M2050.15,-198.32C2050.15,-221.66 2050.15,-259 2050.15,-259 2050.15,-259 2469.9,-259 2469.9,-259"/>
<polygon fill="black" stroke="black" points="2469.9,-262.5 2479.9,-259 2469.9,-255.5 2469.9,-262.5"/>
</g>
<!-- CostEstimatesModule -->
<g id="node26" class="node">
<title>CostEstimatesModule</title>
<polygon fill="#8dd3c7" stroke="black" points="3464.66,-263 3461.66,-267 3440.66,-267 3437.66,-263 3325.34,-263 3325.34,-227 3464.66,-227 3464.66,-263"/>
<text text-anchor="middle" x="3395" y="-240.8" font-family="Times,serif" font-size="14.00">CostEstimatesModule</text>
</g>
<!-- SharedModule&#45;&gt;CostEstimatesModule -->
<g id="edge26" class="edge">
<title>SharedModule&#45;&gt;CostEstimatesModule</title>
<path fill="none" stroke="black" d="M1993.91,-198.06C1993.91,-209.44 1993.91,-222 1993.91,-222 1993.91,-222 3343.24,-222 3343.24,-222 3343.24,-222 3343.24,-222.49 3343.24,-222.49"/>
<polygon fill="black" stroke="black" points="3339.74,-216.88 3343.24,-226.88 3346.74,-216.88 3339.74,-216.88"/>
</g>
<!-- PhoneFormatPipe  -->
<g id="node31" class="node">
<title>PhoneFormatPipe </title>
<polygon fill="#fb8072" stroke="black" points="2145.82,-122 2026.18,-122 2026.18,-86 2145.82,-86 2145.82,-122"/>
<text text-anchor="middle" x="2086" y="-99.8" font-family="Times,serif" font-size="14.00">PhoneFormatPipe </text>
</g>
<!-- SharedModule&#45;&gt;PhoneFormatPipe  -->
<g id="edge30" class="edge">
<title>SharedModule&#45;&gt;PhoneFormatPipe </title>
<path fill="none" stroke="black" stroke-dasharray="5,2" d="M2033.71,-161.99C2033.71,-161.99 2033.71,-132.15 2033.71,-132.15"/>
<polygon fill="black" stroke="black" points="2037.21,-132.15 2033.71,-122.15 2030.21,-132.15 2037.21,-132.15"/>
</g>
<!-- TasksModule -->
<g id="node37" class="node">
<title>TasksModule</title>
<polygon fill="#8dd3c7" stroke="black" points="3939.21,-263 3936.21,-267 3915.21,-267 3912.21,-263 3846.79,-263 3846.79,-227 3939.21,-227 3939.21,-263"/>
<text text-anchor="middle" x="3893" y="-240.8" font-family="Times,serif" font-size="14.00">TasksModule</text>
</g>
<!-- SharedModule&#45;&gt;TasksModule -->
<g id="edge36" class="edge">
<title>SharedModule&#45;&gt;TasksModule</title>
<path fill="none" stroke="black" d="M2007.97,-198.14C2007.97,-204.46 2007.97,-210 2007.97,-210 2007.97,-210 3877.63,-210 3877.63,-210 3877.63,-210 3877.63,-216.68 3877.63,-216.68"/>
<polygon fill="black" stroke="black" points="3874.13,-216.68 3877.63,-226.68 3881.13,-216.68 3874.13,-216.68"/>
</g>
<!-- UserPanelModule -->
<g id="node40" class="node">
<title>UserPanelModule</title>
<polygon fill="#8dd3c7" stroke="black" points="4279.58,-263 4276.58,-267 4255.58,-267 4252.58,-263 4162.42,-263 4162.42,-227 4279.58,-227 4279.58,-263"/>
<text text-anchor="middle" x="4221" y="-240.8" font-family="Times,serif" font-size="14.00">UserPanelModule</text>
</g>
<!-- SharedModule&#45;&gt;UserPanelModule -->
<g id="edge39" class="edge">
<title>SharedModule&#45;&gt;UserPanelModule</title>
<path fill="none" stroke="black" d="M2022.03,-198.19C2022.03,-201.54 2022.03,-204 2022.03,-204 2022.03,-204 4201.49,-204 4201.49,-204 4201.49,-204 4201.49,-216.9 4201.49,-216.9"/>
<polygon fill="black" stroke="black" points="4197.99,-216.9 4201.49,-226.9 4204.99,-216.9 4197.99,-216.9"/>
</g>
<!-- ConstructionsComponent -->
<g id="node13" class="node">
<title>ConstructionsComponent</title>
<polygon fill="#ffffb3" stroke="black" points="568.61,-198 409.39,-198 409.39,-162 568.61,-162 568.61,-198"/>
<text text-anchor="middle" x="489" y="-175.8" font-family="Times,serif" font-size="14.00">ConstructionsComponent</text>
</g>
<!-- ConstructionsComponent&#45;&gt;ConstructionsModule -->
<g id="edge12" class="edge">
<title>ConstructionsComponent&#45;&gt;ConstructionsModule</title>
<path fill="none" stroke="black" d="M429.19,-198.11C429.19,-198.11 429.19,-216.99 429.19,-216.99"/>
<polygon fill="black" stroke="black" points="425.69,-216.99 429.19,-226.99 432.69,-216.99 425.69,-216.99"/>
</g>
<!-- FeatureDialogComponent -->
<g id="node14" class="node">
<title>FeatureDialogComponent</title>
<polygon fill="#ffffb3" stroke="black" points="391.91,-198 230.09,-198 230.09,-162 391.91,-162 391.91,-198"/>
<text text-anchor="middle" x="311" y="-175.8" font-family="Times,serif" font-size="14.00">FeatureDialogComponent</text>
</g>
<!-- FeatureDialogComponent&#45;&gt;ConstructionsModule -->
<g id="edge13" class="edge">
<title>FeatureDialogComponent&#45;&gt;ConstructionsModule</title>
<path fill="none" stroke="black" d="M361.52,-198.11C361.52,-198.11 361.52,-216.99 361.52,-216.99"/>
<polygon fill="black" stroke="black" points="358.02,-216.99 361.52,-226.99 365.02,-216.99 358.02,-216.99"/>
</g>
<!-- ConstructionsRoutingModule -->
<g id="node16" class="node">
<title>ConstructionsRoutingModule</title>
<polygon fill="#8dd3c7" stroke="black" points="206.44,-198 203.44,-202 182.44,-202 179.44,-198 23.56,-198 23.56,-162 206.44,-162 206.44,-198"/>
<text text-anchor="middle" x="115" y="-175.8" font-family="Times,serif" font-size="14.00">ConstructionsRoutingModule</text>
</g>
<!-- ConstructionsRoutingModule&#45;&gt;ConstructionsModule -->
<g id="edge14" class="edge">
<title>ConstructionsRoutingModule&#45;&gt;ConstructionsModule</title>
<path fill="none" stroke="black" d="M115,-198.11C115,-217.34 115,-245 115,-245 115,-245 321.01,-245 321.01,-245"/>
<polygon fill="black" stroke="black" points="321.01,-248.5 331.01,-245 321.01,-241.5 321.01,-248.5"/>
</g>
<!-- AvatarUploadDialogComponent -->
<g id="node17" class="node">
<title>AvatarUploadDialogComponent</title>
<polygon fill="#ffffb3" stroke="black" points="2832.23,-198 2633.77,-198 2633.77,-162 2832.23,-162 2832.23,-198"/>
<text text-anchor="middle" x="2733" y="-175.8" font-family="Times,serif" font-size="14.00">AvatarUploadDialogComponent</text>
</g>
<!-- AvatarUploadDialogComponent&#45;&gt;ContactsModule -->
<g id="edge16" class="edge">
<title>AvatarUploadDialogComponent&#45;&gt;ContactsModule</title>
<path fill="none" stroke="black" d="M2733,-198.03C2733,-214.4 2733,-236 2733,-236 2733,-236 2598.11,-236 2598.11,-236"/>
<polygon fill="black" stroke="black" points="2598.11,-232.5 2588.11,-236 2598.11,-239.5 2598.11,-232.5"/>
</g>
<!-- ContactAvatarComponent -->
<g id="node18" class="node">
<title>ContactAvatarComponent</title>
<polygon fill="#ffffb3" stroke="black" points="2615.47,-198 2452.53,-198 2452.53,-162 2615.47,-162 2615.47,-198"/>
<text text-anchor="middle" x="2534" y="-175.8" font-family="Times,serif" font-size="14.00">ContactAvatarComponent</text>
</g>
<!-- ContactAvatarComponent&#45;&gt;ContactsModule -->
<g id="edge17" class="edge">
<title>ContactAvatarComponent&#45;&gt;ContactsModule</title>
<path fill="none" stroke="black" d="M2534,-198.11C2534,-198.11 2534,-216.99 2534,-216.99"/>
<polygon fill="black" stroke="black" points="2530.5,-216.99 2534,-226.99 2537.5,-216.99 2530.5,-216.99"/>
</g>
<!-- ContactCardComponent -->
<g id="node19" class="node">
<title>ContactCardComponent</title>
<polygon fill="#ffffb3" stroke="black" points="2434.09,-198 2281.91,-198 2281.91,-162 2434.09,-162 2434.09,-198"/>
<text text-anchor="middle" x="2358" y="-175.8" font-family="Times,serif" font-size="14.00">ContactCardComponent</text>
</g>
<!-- ContactCardComponent&#45;&gt;ContactsModule -->
<g id="edge18" class="edge">
<title>ContactCardComponent&#45;&gt;ContactsModule</title>
<path fill="none" stroke="black" d="M2358,-198.03C2358,-218.77 2358,-250 2358,-250 2358,-250 2469.76,-250 2469.76,-250"/>
<polygon fill="black" stroke="black" points="2469.76,-253.5 2479.76,-250 2469.76,-246.5 2469.76,-253.5"/>
</g>
<!-- ContactFormComponent -->
<g id="node20" class="node">
<title>ContactFormComponent</title>
<polygon fill="#ffffb3" stroke="black" points="3154.71,-198 2999.29,-198 2999.29,-162 3154.71,-162 3154.71,-198"/>
<text text-anchor="middle" x="3077" y="-175.8" font-family="Times,serif" font-size="14.00">ContactFormComponent</text>
</g>
<!-- ContactFormComponent&#45;&gt;ContactsModule -->
<g id="edge19" class="edge">
<title>ContactFormComponent&#45;&gt;ContactsModule</title>
<path fill="none" stroke="black" d="M3077,-198.29C3077,-220.21 3077,-254 3077,-254 3077,-254 2598.05,-254 2598.05,-254"/>
<polygon fill="black" stroke="black" points="2598.05,-250.5 2588.05,-254 2598.05,-257.5 2598.05,-250.5"/>
</g>
<!-- ContactsComponent -->
<g id="node21" class="node">
<title>ContactsComponent</title>
<polygon fill="#ffffb3" stroke="black" points="2981.32,-198 2850.68,-198 2850.68,-162 2981.32,-162 2981.32,-198"/>
<text text-anchor="middle" x="2916" y="-175.8" font-family="Times,serif" font-size="14.00">ContactsComponent</text>
</g>
<!-- ContactsComponent&#45;&gt;ContactsModule -->
<g id="edge20" class="edge">
<title>ContactsComponent&#45;&gt;ContactsModule</title>
<path fill="none" stroke="black" d="M2916,-198.11C2916,-217.34 2916,-245 2916,-245 2916,-245 2598.33,-245 2598.33,-245"/>
<polygon fill="black" stroke="black" points="2598.33,-241.5 2588.33,-245 2598.33,-248.5 2598.33,-241.5"/>
</g>
<!-- ContactsRoutingModule -->
<g id="node23" class="node">
<title>ContactsRoutingModule</title>
<polygon fill="#8dd3c7" stroke="black" points="2257.66,-198 2254.66,-202 2233.66,-202 2230.66,-198 2104.34,-198 2104.34,-162 2257.66,-162 2257.66,-198"/>
<text text-anchor="middle" x="2181" y="-175.8" font-family="Times,serif" font-size="14.00">ContactsRoutingModule</text>
</g>
<!-- ContactsRoutingModule&#45;&gt;ContactsModule -->
<g id="edge21" class="edge">
<title>ContactsRoutingModule&#45;&gt;ContactsModule</title>
<path fill="none" stroke="black" d="M2181,-198.29C2181,-220.21 2181,-254 2181,-254 2181,-254 2469.62,-254 2469.62,-254"/>
<polygon fill="black" stroke="black" points="2469.62,-257.5 2479.62,-254 2469.62,-250.5 2469.62,-257.5"/>
</g>
<!-- CostEstimatesComponent -->
<g id="node24" class="node">
<title>CostEstimatesComponent</title>
<polygon fill="#ffffb3" stroke="black" points="3783.94,-198 3622.06,-198 3622.06,-162 3783.94,-162 3783.94,-198"/>
<text text-anchor="middle" x="3703" y="-175.8" font-family="Times,serif" font-size="14.00">CostEstimatesComponent</text>
</g>
<!-- CostEstimatesComponent&#45;&gt;CostEstimatesModule -->
<g id="edge23" class="edge">
<title>CostEstimatesComponent&#45;&gt;CostEstimatesModule</title>
<path fill="none" stroke="black" d="M3703,-198.11C3703,-217.34 3703,-245 3703,-245 3703,-245 3474.89,-245 3474.89,-245"/>
<polygon fill="black" stroke="black" points="3474.89,-241.5 3464.89,-245 3474.89,-248.5 3474.89,-241.5"/>
</g>
<!-- CostEstimatesDetailsComponent -->
<g id="node25" class="node">
<title>CostEstimatesDetailsComponent</title>
<polygon fill="#ffffb3" stroke="black" points="3604.59,-198 3403.41,-198 3403.41,-162 3604.59,-162 3604.59,-198"/>
<text text-anchor="middle" x="3504" y="-175.8" font-family="Times,serif" font-size="14.00">CostEstimatesDetailsComponent</text>
</g>
<!-- CostEstimatesDetailsComponent&#45;&gt;CostEstimatesModule -->
<g id="edge24" class="edge">
<title>CostEstimatesDetailsComponent&#45;&gt;CostEstimatesModule</title>
<path fill="none" stroke="black" d="M3434.14,-198.11C3434.14,-198.11 3434.14,-216.99 3434.14,-216.99"/>
<polygon fill="black" stroke="black" points="3430.64,-216.99 3434.14,-226.99 3437.64,-216.99 3430.64,-216.99"/>
</g>
<!-- CostEstimatesRoutingModule -->
<g id="node27" class="node">
<title>CostEstimatesRoutingModule</title>
<polygon fill="#8dd3c7" stroke="black" points="3379.27,-198 3376.27,-202 3355.27,-202 3352.27,-198 3194.73,-198 3194.73,-162 3379.27,-162 3379.27,-198"/>
<text text-anchor="middle" x="3287" y="-175.8" font-family="Times,serif" font-size="14.00">CostEstimatesRoutingModule</text>
</g>
<!-- CostEstimatesRoutingModule&#45;&gt;CostEstimatesModule -->
<g id="edge25" class="edge">
<title>CostEstimatesRoutingModule&#45;&gt;CostEstimatesModule</title>
<path fill="none" stroke="black" d="M3361.32,-198.11C3361.32,-198.11 3361.32,-216.99 3361.32,-216.99"/>
<polygon fill="black" stroke="black" points="3357.82,-216.99 3361.32,-226.99 3364.82,-216.99 3357.82,-216.99"/>
</g>
<!-- ConfirmDialogComponent -->
<g id="node28" class="node">
<title>ConfirmDialogComponent</title>
<polygon fill="#ffffb3" stroke="black" points="2506.37,-122 2339.63,-122 2339.63,-86 2506.37,-86 2506.37,-122"/>
<text text-anchor="middle" x="2423" y="-99.8" font-family="Times,serif" font-size="14.00">ConfirmDialogComponent</text>
</g>
<!-- ConfirmDialogComponent&#45;&gt;SharedModule -->
<g id="edge27" class="edge">
<title>ConfirmDialogComponent&#45;&gt;SharedModule</title>
<path fill="none" stroke="black" d="M2386.8,-122.04C2386.8,-135.29 2386.8,-151 2386.8,-151 2386.8,-151 2048.96,-151 2048.96,-151 2048.96,-151 2048.96,-152.08 2048.96,-152.08"/>
<polygon fill="black" stroke="black" points="2045.46,-151.8 2048.96,-161.8 2052.46,-151.8 2045.46,-151.8"/>
</g>
<!-- MenuButtonComponent -->
<g id="node29" class="node">
<title>MenuButtonComponent</title>
<polygon fill="#ffffb3" stroke="black" points="2322.11,-122 2169.89,-122 2169.89,-86 2322.11,-86 2322.11,-122"/>
<text text-anchor="middle" x="2246" y="-99.8" font-family="Times,serif" font-size="14.00">MenuButtonComponent</text>
</g>
<!-- MenuButtonComponent&#45;&gt;SharedModule -->
<g id="edge28" class="edge">
<title>MenuButtonComponent&#45;&gt;SharedModule</title>
<path fill="none" stroke="black" d="M2213.89,-122.1C2213.89,-133.09 2213.89,-145 2213.89,-145 2213.89,-145 2041.34,-145 2041.34,-145 2041.34,-145 2041.34,-151.68 2041.34,-151.68"/>
<polygon fill="black" stroke="black" points="2037.84,-151.68 2041.34,-161.68 2044.84,-151.68 2037.84,-151.68"/>
</g>
<!-- PhoneFormatPipe -->
<g id="node30" class="node">
<title>PhoneFormatPipe</title>
<polygon fill="#ffffb3" stroke="black" points="2641.32,-122 2524.68,-122 2524.68,-86 2641.32,-86 2641.32,-122"/>
<text text-anchor="middle" x="2583" y="-99.8" font-family="Times,serif" font-size="14.00">PhoneFormatPipe</text>
</g>
<!-- PhoneFormatPipe&#45;&gt;SharedModule -->
<g id="edge29" class="edge">
<title>PhoneFormatPipe&#45;&gt;SharedModule</title>
<path fill="none" stroke="black" d="M2570.16,-122.24C2570.16,-137.57 2570.16,-157 2570.16,-157 2570.16,-157 2056.59,-157 2056.59,-157 2056.59,-157 2056.59,-157.49 2056.59,-157.49"/>
<polygon fill="black" stroke="black" points="2053.09,-151.88 2056.59,-161.88 2060.09,-151.88 2053.09,-151.88"/>
</g>
<!-- AuthService -->
<g id="node32" class="node">
<title>AuthService</title>
<ellipse fill="#fdb462" stroke="black" cx="1943" cy="-104" rx="59.11" ry="18"/>
<text text-anchor="middle" x="1943" y="-99.8" font-family="Times,serif" font-size="14.00">AuthService</text>
</g>
<!-- AuthService&#45;&gt;SharedModule -->
<g id="edge31" class="edge">
<title>AuthService&#45;&gt;SharedModule</title>
<path fill="none" stroke="black" d="M1995,-112.72C1995,-112.72 1995,-151.88 1995,-151.88"/>
<polygon fill="black" stroke="black" points="1991.5,-151.88 1995,-161.88 1998.5,-151.88 1991.5,-151.88"/>
</g>
<!-- LocalStorageSeederService -->
<g id="node33" class="node">
<title>LocalStorageSeederService</title>
<ellipse fill="#fdb462" stroke="black" cx="1748" cy="-104" rx="117.99" ry="18"/>
<text text-anchor="middle" x="1748" y="-99.8" font-family="Times,serif" font-size="14.00">LocalStorageSeederService</text>
</g>
<!-- LocalStorageSeederService&#45;&gt;SharedModule -->
<g id="edge32" class="edge">
<title>LocalStorageSeederService&#45;&gt;SharedModule</title>
<path fill="none" stroke="black" d="M1842.18,-114.88C1842.18,-121.23 1842.18,-128 1842.18,-128 1842.18,-128 1987.7,-128 1987.7,-128 1987.7,-128 1987.7,-151.81 1987.7,-151.81"/>
<polygon fill="black" stroke="black" points="1984.2,-151.81 1987.7,-161.81 1991.2,-151.81 1984.2,-151.81"/>
</g>
<!-- NotificationService -->
<g id="node34" class="node">
<title>NotificationService</title>
<ellipse fill="#fdb462" stroke="black" cx="1526" cy="-104" rx="86.81" ry="18"/>
<text text-anchor="middle" x="1526" y="-99.8" font-family="Times,serif" font-size="14.00">NotificationService</text>
</g>
<!-- NotificationService&#45;&gt;SharedModule -->
<g id="edge33" class="edge">
<title>NotificationService&#45;&gt;SharedModule</title>
<path fill="none" stroke="black" d="M1577.13,-118.65C1577.13,-126.26 1577.13,-134 1577.13,-134 1577.13,-134 1980.39,-134 1980.39,-134 1980.39,-134 1980.39,-151.82 1980.39,-151.82"/>
<polygon fill="black" stroke="black" points="1976.89,-151.82 1980.39,-161.82 1983.89,-151.82 1976.89,-151.82"/>
</g>
<!-- ThemeService -->
<g id="node35" class="node">
<title>ThemeService</title>
<ellipse fill="#fdb462" stroke="black" cx="1355" cy="-104" rx="66.61" ry="18"/>
<text text-anchor="middle" x="1355" y="-99.8" font-family="Times,serif" font-size="14.00">ThemeService</text>
</g>
<!-- ThemeService&#45;&gt;SharedModule -->
<g id="edge34" class="edge">
<title>ThemeService&#45;&gt;SharedModule</title>
<path fill="none" stroke="black" d="M1390.07,-119.48C1390.07,-129.23 1390.07,-140 1390.07,-140 1390.07,-140 1973.09,-140 1973.09,-140 1973.09,-140 1973.09,-151.87 1973.09,-151.87"/>
<polygon fill="black" stroke="black" points="1969.59,-151.87 1973.09,-161.87 1976.59,-151.87 1969.59,-151.87"/>
</g>
<!-- TasksComponent -->
<g id="node36" class="node">
<title>TasksComponent</title>
<polygon fill="#ffffb3" stroke="black" points="4099.99,-198 3986.01,-198 3986.01,-162 4099.99,-162 4099.99,-198"/>
<text text-anchor="middle" x="4043" y="-175.8" font-family="Times,serif" font-size="14.00">TasksComponent</text>
</g>
<!-- TasksComponent&#45;&gt;TasksModule -->
<g id="edge35" class="edge">
<title>TasksComponent&#45;&gt;TasksModule</title>
<path fill="none" stroke="black" d="M4043,-198.11C4043,-217.34 4043,-245 4043,-245 4043,-245 3949.23,-245 3949.23,-245"/>
<polygon fill="black" stroke="black" points="3949.23,-241.5 3939.23,-245 3949.23,-248.5 3949.23,-241.5"/>
</g>
<!-- TasksRoutingModule -->
<g id="node38" class="node">
<title>TasksRoutingModule</title>
<polygon fill="#8dd3c7" stroke="black" points="3961.82,-198 3958.82,-202 3937.82,-202 3934.82,-198 3824.18,-198 3824.18,-162 3961.82,-162 3961.82,-198"/>
<text text-anchor="middle" x="3893" y="-175.8" font-family="Times,serif" font-size="14.00">TasksRoutingModule</text>
</g>
<!-- TasksRoutingModule&#45;&gt;TasksModule -->
<g id="edge37" class="edge">
<title>TasksRoutingModule&#45;&gt;TasksModule</title>
<path fill="none" stroke="black" d="M3908.37,-198.11C3908.37,-198.11 3908.37,-216.99 3908.37,-216.99"/>
<polygon fill="black" stroke="black" points="3904.87,-216.99 3908.37,-226.99 3911.87,-216.99 3904.87,-216.99"/>
</g>
<!-- UserPanelComponent -->
<g id="node39" class="node">
<title>UserPanelComponent</title>
<polygon fill="#ffffb3" stroke="black" points="4464.36,-198 4325.64,-198 4325.64,-162 4464.36,-162 4464.36,-198"/>
<text text-anchor="middle" x="4395" y="-175.8" font-family="Times,serif" font-size="14.00">UserPanelComponent</text>
</g>
<!-- UserPanelComponent&#45;&gt;UserPanelModule -->
<g id="edge38" class="edge">
<title>UserPanelComponent&#45;&gt;UserPanelModule</title>
<path fill="none" stroke="black" d="M4395,-198.11C4395,-217.34 4395,-245 4395,-245 4395,-245 4289.91,-245 4289.91,-245"/>
<polygon fill="black" stroke="black" points="4289.91,-241.5 4279.91,-245 4289.91,-248.5 4289.91,-241.5"/>
</g>
<!-- UserPanelRoutingModule -->
<g id="node41" class="node">
<title>UserPanelRoutingModule</title>
<polygon fill="#8dd3c7" stroke="black" points="4302.2,-198 4299.2,-202 4278.2,-202 4275.2,-198 4139.8,-198 4139.8,-162 4302.2,-162 4302.2,-198"/>
<text text-anchor="middle" x="4221" y="-175.8" font-family="Times,serif" font-size="14.00">UserPanelRoutingModule</text>
</g>
<!-- UserPanelRoutingModule&#45;&gt;UserPanelModule -->
<g id="edge40" class="edge">
<title>UserPanelRoutingModule&#45;&gt;UserPanelModule</title>
<path fill="none" stroke="black" d="M4240.51,-198.11C4240.51,-198.11 4240.51,-216.99 4240.51,-216.99"/>
<polygon fill="black" stroke="black" points="4237.01,-216.99 4240.51,-226.99 4244.01,-216.99 4237.01,-216.99"/>
</g>
</g>
</svg>
