<?xml version="1.0" encoding="UTF-8" standalone="no"?>
<!DOCTYPE svg PUBLIC "-//W3C//DTD SVG 1.1//EN"
 "http://www.w3.org/Graphics/SVG/1.1/DTD/svg11.dtd">
<!-- Generated by graphviz version 2.47.0 (20210316.0004)
 -->
<!-- Title: dependencies Pages: 1 -->
<svg width="1510pt" height="284pt"
 viewBox="0.00 0.00 1510.00 284.00" xmlns="http://www.w3.org/2000/svg" xmlns:xlink="http://www.w3.org/1999/xlink">
<g id="graph0" class="graph" transform="scale(1 1) rotate(0) translate(4 280)">
<title>dependencies</title>
<polygon fill="white" stroke="transparent" points="-4,4 -4,-280 1506,-280 1506,4 -4,4"/>
<text text-anchor="start" x="730.01" y="-42.4" font-family="Times-12" font-weight="bold" font-size="14.00">Legend</text>
<polygon fill="#ffffb3" stroke="transparent" points="517,-10 517,-30 537,-30 537,-10 517,-10"/>
<text text-anchor="start" x="540.63" y="-15.4" font-family="Times-12" font-size="14.00"> &#160;Declarations</text>
<polygon fill="#8dd3c7" stroke="transparent" points="630,-10 630,-30 650,-30 650,-10 630,-10"/>
<text text-anchor="start" x="653.73" y="-15.4" font-family="Times-12" font-size="14.00"> &#160;Module</text>
<polygon fill="#80b1d3" stroke="transparent" points="716,-10 716,-30 736,-30 736,-10 716,-10"/>
<text text-anchor="start" x="739.78" y="-15.4" font-family="Times-12" font-size="14.00"> &#160;Bootstrap</text>
<polygon fill="#fdb462" stroke="transparent" points="813,-10 813,-30 833,-30 833,-10 813,-10"/>
<text text-anchor="start" x="836.67" y="-15.4" font-family="Times-12" font-size="14.00"> &#160;Providers</text>
<polygon fill="#fb8072" stroke="transparent" points="909,-10 909,-30 929,-30 929,-10 909,-10"/>
<text text-anchor="start" x="932.73" y="-15.4" font-family="Times-12" font-size="14.00"> &#160;Exports</text>
<g id="clust1" class="cluster">
<title>cluster_AppModule</title>
<polygon fill="none" stroke="black" stroke-dasharray="1,5" points="8,-70 8,-268 1494,-268 1494,-70 8,-70"/>
</g>
<g id="clust13" class="cluster">
<title>cluster_AppModule_bootstrap</title>
<polygon fill="none" stroke="black" points="684,-208 684,-260 808,-260 808,-208 684,-208"/>
</g>
<g id="clust2" class="cluster">
<title>cluster_AppModule_declarations</title>
<polygon fill="none" stroke="black" points="285,-78 285,-130 1486,-130 1486,-78 285,-78"/>
</g>
<g id="clust11" class="cluster">
<title>cluster_AppModule_imports</title>
<polygon fill="none" stroke="black" points="16,-78 16,-130 277,-130 277,-78 16,-78"/>
</g>
<!-- AccountComponent -->
<g id="node1" class="node">
<title>AccountComponent</title>
<polygon fill="#ffffb3" stroke="black" points="1478.26,-122 1349.74,-122 1349.74,-86 1478.26,-86 1478.26,-122"/>
<text text-anchor="middle" x="1414" y="-99.8" font-family="Times,serif" font-size="14.00">AccountComponent</text>
</g>
<!-- AppModule -->
<g id="node9" class="node">
<title>AppModule</title>
<polygon fill="#8dd3c7" stroke="black" points="787.66,-187 784.66,-191 763.66,-191 760.66,-187 704.34,-187 704.34,-151 787.66,-151 787.66,-187"/>
<text text-anchor="middle" x="746" y="-164.8" font-family="Times,serif" font-size="14.00">AppModule</text>
</g>
<!-- AccountComponent&#45;&gt;AppModule -->
<g id="edge1" class="edge">
<title>AccountComponent&#45;&gt;AppModule</title>
<path fill="none" stroke="black" d="M1414,-122.01C1414,-144.49 1414,-180 1414,-180 1414,-180 797.79,-180 797.79,-180"/>
<polygon fill="black" stroke="black" points="797.79,-176.5 787.79,-180 797.79,-183.5 797.79,-176.5"/>
</g>
<!-- AppComponent -->
<g id="node2" class="node">
<title>AppComponent</title>
<polygon fill="#ffffb3" stroke="black" points="1331.94,-122 1226.06,-122 1226.06,-86 1331.94,-86 1331.94,-122"/>
<text text-anchor="middle" x="1279" y="-99.8" font-family="Times,serif" font-size="14.00">AppComponent</text>
</g>
<!-- AppComponent&#45;&gt;AppModule -->
<g id="edge2" class="edge">
<title>AppComponent&#45;&gt;AppModule</title>
<path fill="none" stroke="black" d="M1279,-122.13C1279,-142.57 1279,-173 1279,-173 1279,-173 797.82,-173 797.82,-173"/>
<polygon fill="black" stroke="black" points="797.82,-169.5 787.82,-173 797.82,-176.5 797.82,-169.5"/>
</g>
<!-- HeaderComponent -->
<g id="node3" class="node">
<title>HeaderComponent</title>
<polygon fill="#ffffb3" stroke="black" points="1207.74,-122 1086.26,-122 1086.26,-86 1207.74,-86 1207.74,-122"/>
<text text-anchor="middle" x="1147" y="-99.8" font-family="Times,serif" font-size="14.00">HeaderComponent</text>
</g>
<!-- HeaderComponent&#45;&gt;AppModule -->
<g id="edge3" class="edge">
<title>HeaderComponent&#45;&gt;AppModule</title>
<path fill="none" stroke="black" d="M1147,-122.27C1147,-140.56 1147,-166 1147,-166 1147,-166 797.78,-166 797.78,-166"/>
<polygon fill="black" stroke="black" points="797.78,-162.5 787.78,-166 797.78,-169.5 797.78,-162.5"/>
</g>
<!-- HeaderWelcomeComponent -->
<g id="node4" class="node">
<title>HeaderWelcomeComponent</title>
<polygon fill="#ffffb3" stroke="black" points="1067.88,-122 892.12,-122 892.12,-86 1067.88,-86 1067.88,-122"/>
<text text-anchor="middle" x="980" y="-99.8" font-family="Times,serif" font-size="14.00">HeaderWelcomeComponent</text>
</g>
<!-- HeaderWelcomeComponent&#45;&gt;AppModule -->
<g id="edge4" class="edge">
<title>HeaderWelcomeComponent&#45;&gt;AppModule</title>
<path fill="none" stroke="black" d="M980,-122.01C980,-138.05 980,-159 980,-159 980,-159 797.83,-159 797.83,-159"/>
<polygon fill="black" stroke="black" points="797.83,-155.5 787.83,-159 797.83,-162.5 797.83,-155.5"/>
</g>
<!-- LayoutComponent -->
<g id="node5" class="node">
<title>LayoutComponent</title>
<polygon fill="#ffffb3" stroke="black" points="874.49,-122 753.51,-122 753.51,-86 874.49,-86 874.49,-122"/>
<text text-anchor="middle" x="814" y="-99.8" font-family="Times,serif" font-size="14.00">LayoutComponent</text>
</g>
<!-- LayoutComponent&#45;&gt;AppModule -->
<g id="edge5" class="edge">
<title>LayoutComponent&#45;&gt;AppModule</title>
<path fill="none" stroke="black" d="M770.67,-122.11C770.67,-122.11 770.67,-140.99 770.67,-140.99"/>
<polygon fill="black" stroke="black" points="767.17,-140.99 770.67,-150.99 774.17,-140.99 767.17,-140.99"/>
</g>
<!-- LoginComponent -->
<g id="node6" class="node">
<title>LoginComponent</title>
<polygon fill="#ffffb3" stroke="black" points="735.28,-122 620.72,-122 620.72,-86 735.28,-86 735.28,-122"/>
<text text-anchor="middle" x="678" y="-99.8" font-family="Times,serif" font-size="14.00">LoginComponent</text>
</g>
<!-- LoginComponent&#45;&gt;AppModule -->
<g id="edge6" class="edge">
<title>LoginComponent&#45;&gt;AppModule</title>
<path fill="none" stroke="black" d="M719.78,-122.11C719.78,-122.11 719.78,-140.99 719.78,-140.99"/>
<polygon fill="black" stroke="black" points="716.28,-140.99 719.78,-150.99 723.28,-140.99 716.28,-140.99"/>
</g>
<!-- PageNotFoundComponent -->
<g id="node7" class="node">
<title>PageNotFoundComponent</title>
<polygon fill="#ffffb3" stroke="black" points="602.82,-122 437.18,-122 437.18,-86 602.82,-86 602.82,-122"/>
<text text-anchor="middle" x="520" y="-99.8" font-family="Times,serif" font-size="14.00">PageNotFoundComponent</text>
</g>
<!-- PageNotFoundComponent&#45;&gt;AppModule -->
<g id="edge7" class="edge">
<title>PageNotFoundComponent&#45;&gt;AppModule</title>
<path fill="none" stroke="black" d="M520,-122.01C520,-138.05 520,-159 520,-159 520,-159 694.28,-159 694.28,-159"/>
<polygon fill="black" stroke="black" points="694.28,-162.5 704.28,-159 694.28,-155.5 694.28,-162.5"/>
</g>
<!-- SettingsComponent -->
<g id="node8" class="node">
<title>SettingsComponent</title>
<polygon fill="#ffffb3" stroke="black" points="419.45,-122 292.55,-122 292.55,-86 419.45,-86 419.45,-122"/>
<text text-anchor="middle" x="356" y="-99.8" font-family="Times,serif" font-size="14.00">SettingsComponent</text>
</g>
<!-- SettingsComponent&#45;&gt;AppModule -->
<g id="edge8" class="edge">
<title>SettingsComponent&#45;&gt;AppModule</title>
<path fill="none" stroke="black" d="M356,-122.27C356,-140.56 356,-166 356,-166 356,-166 694.26,-166 694.26,-166"/>
<polygon fill="black" stroke="black" points="694.26,-169.5 704.26,-166 694.26,-162.5 694.26,-169.5"/>
</g>
<!-- AppComponent  -->
<g id="node12" class="node">
<title>AppComponent </title>
<polygon fill="#80b1d3" stroke="black" points="800.44,-252 691.56,-252 691.56,-216 800.44,-216 800.44,-252"/>
<text text-anchor="middle" x="746" y="-229.8" font-family="Times,serif" font-size="14.00">AppComponent </text>
</g>
<!-- AppModule&#45;&gt;AppComponent  -->
<g id="edge11" class="edge">
<title>AppModule&#45;&gt;AppComponent </title>
<path fill="none" stroke="black" stroke-dasharray="1,5" d="M746,-187.11C746,-187.11 746,-205.99 746,-205.99"/>
<polygon fill="black" stroke="black" points="742.5,-205.99 746,-215.99 749.5,-205.99 742.5,-205.99"/>
</g>
<!-- AppRoutingModule -->
<g id="node10" class="node">
<title>AppRoutingModule</title>
<polygon fill="#8dd3c7" stroke="black" points="269.27,-122 266.27,-126 245.27,-126 242.27,-122 140.73,-122 140.73,-86 269.27,-86 269.27,-122"/>
<text text-anchor="middle" x="205" y="-99.8" font-family="Times,serif" font-size="14.00">AppRoutingModule</text>
</g>
<!-- AppRoutingModule&#45;&gt;AppModule -->
<g id="edge9" class="edge">
<title>AppRoutingModule&#45;&gt;AppModule</title>
<path fill="none" stroke="black" d="M205,-122.13C205,-142.57 205,-173 205,-173 205,-173 694,-173 694,-173"/>
<polygon fill="black" stroke="black" points="694,-176.5 704,-173 694,-169.5 694,-176.5"/>
</g>
<!-- SharedModule -->
<g id="node11" class="node">
<title>SharedModule</title>
<polygon fill="#8dd3c7" stroke="black" points="122.42,-122 119.42,-126 98.42,-126 95.42,-122 23.58,-122 23.58,-86 122.42,-86 122.42,-122"/>
<text text-anchor="middle" x="73" y="-99.8" font-family="Times,serif" font-size="14.00">SharedModule</text>
</g>
<!-- SharedModule&#45;&gt;AppModule -->
<g id="edge10" class="edge">
<title>SharedModule&#45;&gt;AppModule</title>
<path fill="none" stroke="black" d="M73,-122.01C73,-144.49 73,-180 73,-180 73,-180 694.16,-180 694.16,-180"/>
<polygon fill="black" stroke="black" points="694.16,-183.5 704.16,-180 694.16,-176.5 694.16,-183.5"/>
</g>
</g>
</svg>
